<svg xmlns="http://www.w3.org/2000/svg" width="256" height="256"><path fill-opacity=".016" d="M0 128.004v128.004l128.25-.254 128.25-.254.254-127.75L257.008 0H0v128.004m.485.496c0 70.4.119 99.053.265 63.672.146-35.38.146-92.98 0-128C.604 29.153.485 58.1.485 128.5" fill="#1976D2" fill-rule="evenodd"/><path fill-opacity=".211" d="M67.5 1.647C63.532 3.72 62 5.798 62 9.107c0 4.249-7.078 9.393-12.924 9.393-3.736 0-4.692.403-5.7 2.401-.805 1.596-.906 3.204-.303 4.791.757 1.99.277 3.189-2.87 7.17-2.078 2.629-4.343 4.591-5.033 4.361-2.922-.974-6.215.945-8.158 4.753C25.081 45.762 25 47.799 25 92.796v46.877l4.432 6.888 4.432 6.888-2.541 1.667c-4.691 3.077-6.309 6.761-6.316 14.376L25 176.485l7.356 7.098c12.978 12.523 29.411 22.154 47.473 27.821 8.595 2.697 23.258 5.596 28.302 5.596H111v14H90.338c-20.204 0-20.756.055-24.904 2.486-5.513 3.231-8.434 9.059-8.434 16.83V256h142v-5.684c0-7.771-2.921-13.599-8.434-16.83-4.148-2.431-4.7-2.486-24.904-2.486H145v-16.643l8.854-2.651c30.099-9.01 58.853-32.655 73.396-60.356l3.75-7.142V40.282l-3.129-5.891c-6.901-12.99-20.309-30.015-25.927-32.92C200.379.662 196.489.003 193.3.007c-6.331.007-10.282 1.893-13.161 6.282l-1.645 2.506-6.997-4.34L164.5.114l-47-.017c-40.753-.015-47.399.191-50 1.55" fill="#1976D2" fill-rule="evenodd"/><path fill-opacity=".263" d="M66.701 2.604c-4.337 2.839-5.174 4.376-4.294 7.883 1.082 4.309 4.675 4.23 14.468-.321C88.899 4.58 109-.651 109 1.807c0 .54-.893 3.874-1.985 7.407-1.799 5.826-2.82 7.225-10.932 14.989-7.025 6.723-9.094 9.341-9.626 12.174-1.327 7.074 2.271 13.363 10.189 17.809 4.633 2.602 6.774 3.034 21.5 4.339 27.96 2.479 31.068 2.11 37.291-4.436 1.615-1.699 3.865-3.075 5-3.058 1.142.017 6.083 3.64 11.063 8.112 15.888 14.264 20.186 15.997 29.359 11.835 2.398-1.088 4.503-1.978 4.679-1.978 1.233 0 2.832 13.532 2.778 23.5-.073 13.535-1.805 22.893-6.323 34.177-4.753 11.87-15.507 27.279-23.269 33.341l-2.776 2.168-3.914-3.536c-8.168-7.38-9.975-7.662-35.794-5.581-10.144.817-16.613.957-17.198.371-.516-.517-1.616-2.564-2.445-4.55l-1.507-3.609 7.008-2.75c12.214-4.792 13.561-6.783 17.952-26.531 3.508-15.777 1.339-23.066-7.754-26.067-3.638-1.201-19.968-.481-26.455 1.166-4.899 1.244-8.956 6.096-12.369 14.795-1.539 3.922-3.357 7.595-4.039 8.162-.683.566-3.999 1.543-7.369 2.169-7.514 1.398-7.744 1.207-11.615-9.621-3.077-8.606-6.041-12.824-10.703-15.235-1.808-.935-9.045-2.135-18.081-2.998-8.286-.791-15.277-1.65-15.537-1.91-.893-.893 1.965-16.384 4.274-23.169 1.272-3.735 3.727-9.592 5.455-13.013 3.725-7.374 3.902-9.634.92-11.722-3.514-2.462-5.544-1.862-8.771 2.593L25 45.3v46.4c0 50.915-.38 47.448 6.272 57.172l2.991 4.371-3.151 2.467C26.787 159.094 25 162.98 25 169c0 7.071 1.76 9.859 11.25 17.822 20.67 17.345 42.583 26.637 70 29.683l5.75.639V231H91.968c-15.765 0-20.816.328-23.714 1.538-7.316 3.057-9.841 6.974-10.851 16.833L56.724 256h142.565l-.604-6.472c-.908-9.72-3.619-13.931-10.939-16.99-2.898-1.21-7.949-1.538-23.714-1.538H144v-16.543l10.25-3.258c31.071-9.874 57.21-31.368 72.281-59.438l4.436-8.261.016-51.29c.017-50.328-.023-51.369-2.108-55.5-6.11-12.102-20.262-30.689-26.497-34.8-3.535-2.33-12.223-2.559-16.34-.43-1.574.814-3.945 2.864-5.268 4.554l-2.405 3.074-7.387-4.554L163.592 0l-46.546.059L70.5.118l-3.799 2.486m52.398 6.646c-2.885 10.803-3.431 11.69-13.093 21.302-6.538 6.504-8.092 8.601-7.579 10.219 1.105 3.48 6.328 5.01 21.073 6.172 7.7.607 16.298 1.362 19.107 1.678 4.961.557 5.253.444 10.228-3.974 9.878-8.774 15.049-7.709 30.927 6.368C186.186 56.711 191.899 61 193.061 61c1.672 0 7.371-2.315 8.804-3.575.723-.636-7.959-15.699-12.3-21.341-9.059-11.773-23.037-22.481-36.85-28.229-7.927-3.299-22.176-6.799-27.814-6.833L121.303 1l-2.204 8.25M190.2 12.2c-2.342 2.342-1.215 5.762 3.68 11.167 10.525 11.622 17.832 24.901 22.689 41.233 3.776 12.696 4.516 34.625 1.637 48.519-4.029 19.445-14.003 37.907-28.092 51.995-38.547 38.548-100.047 40.52-141.114 4.525-6.749-5.915-10.192-6.908-12.296-3.544-2.036 3.253.211 6.688 9.047 13.834 11.042 8.93 28.989 18.076 42.749 21.785 9.233 2.489 11.457 2.693 29 2.668 20.995-.03 26.29-.976 42.993-7.683 25.747-10.338 49.035-33.104 60.188-58.84 10.902-25.158 12.304-55.726 3.731-81.375-5.089-15.227-13.298-29.253-23.254-39.734-5.467-5.755-8.496-7.012-10.958-4.55M44.571 19.571C41.207 22.936 43.68 29 48.416 29 51.152 29 54 26.106 54 23.326c0-4.434-6.257-6.926-9.429-3.755M26 101.753c0 4.776 4.492 21.171 7.799 28.464 19.723 43.499 69.975 64.348 115.26 47.821 8.856-3.232 16.941-7.559 16.941-9.066 0-.519-1.792-2.13-3.983-3.579l-3.982-2.636-18.516 1.701c-10.184.936-19.846 1.41-21.471 1.053-4.535-.996-7.836-4.149-11.085-10.584-5.909-11.706-3.29-17.828 9.683-22.634 4.148-1.536 7.898-3.468 8.333-4.293 1.473-2.791 6.069-25.113 5.396-26.203-.959-1.55-21.33-.3-22.913 1.406-.662.714-2.416 4.534-3.898 8.49-3.337 8.905-8.071 13.615-15.198 15.117-11.05 2.331-14.033 2.442-17.779.664-4.675-2.218-6.728-5.209-10.091-14.697-1.505-4.248-3.279-8.465-3.942-9.372-1.364-1.866-6.689-2.869-20.804-3.918L26 98.762v2.991m101.75 114.982-4.75.375V231h10v-7.5c0-4.125-.113-7.419-.25-7.32-.137.099-2.387.349-5 .555M124 224v6h8v-12h-8v6m1 0c0 4.889.067 5 3 5s3-.111 3-5-.067-5-3-5-3 .111-3 5" fill="#1976D2" fill-rule="evenodd"/><path fill-opacity=".986" d="M67.534 2.498c-4.434 2.724-5.66 4.964-4.469 8.164 1.419 3.809 4.11 3.601 14.02-1.079 14.203-6.709 34.107-11.178 32.658-7.333-.26.688-1.235 3.95-2.169 7.25-1.516 5.359-2.587 6.855-10.025 14C88.22 32.462 87 34.311 87 39.484c0 6.867 5.036 12.917 13.211 15.87 2.416.873 12.709 2.239 23.572 3.128 22.401 1.832 25.041 1.452 31.241-4.505C157.301 51.79 159.805 50 160.59 50c.785 0 5.361 3.521 10.169 7.824 13.561 12.138 16.755 14.18 22.141 14.154 2.53-.012 6.499-.884 8.82-1.938l4.22-1.916 1.114 3.688c2.071 6.858 2.346 27.782.497 37.688-3.261 17.463-12.871 35.58-25.411 47.903l-6.007 5.902-5.159-4.639c-7.549-6.787-9.918-7.177-31.804-5.23-14.446 1.285-18.692 1.376-19.84.423-2.112-1.753-4.556-6.828-3.994-8.293.265-.69 3.304-2.309 6.754-3.6 7.429-2.778 12.408-6.847 13.785-11.266.549-1.76 2.203-8.736 3.677-15.501 2.601-11.938 2.631-12.432.997-16.711-1.132-2.963-2.844-5.125-5.222-6.595-3.299-2.039-4.375-2.147-15.899-1.603-18.059.853-20.044 2.153-25.96 16.988-1.487 3.727-3.44 7.172-4.34 7.654-3.176 1.699-13.37 3.112-14.67 2.033-.679-.563-2.701-5.093-4.494-10.066-3.631-10.069-6.996-14.26-12.767-15.902-2.033-.579-10.109-1.623-17.947-2.321L25 87.408v10.334l4.75.584c2.612.322 8.575.862 13.25 1.202 12.842.933 13.418 1.3 16.992 10.831 4.026 10.735 5.192 12.716 9.055 15.391 3.898 2.699 8.369 2.862 18.066.656 9.123-2.075 12.601-5.436 16.397-15.844 1.535-4.209 3.511-8.021 4.39-8.47 2.066-1.055 19.532-2.247 21.555-1.471 2.044.785 1.949 3.549-.483 14.09-3.573 15.487-3.111 14.772-11.518 17.838-12.879 4.697-15.646 9.816-10.957 20.266 1.478 3.293 4.025 7.27 5.659 8.836 2.828 2.711 3.415 2.849 12.158 2.839 5.052-.005 15.085-.406 22.296-.892l13.109-.882 3.816 3.497 3.816 3.497-4.736 2.775c-7.018 4.113-18.024 8.135-27.525 10.059-11.35 2.297-32.478 1.584-42.59-1.439-34.553-10.327-59.615-37.886-66.027-72.605-1.279-6.929-1.293-6.82-1.383 10.79-.098 19.45.079 20.218 7.033 30.37l2.849 4.159-3.306 1.95c-5.951 3.511-8.578 13.632-5.224 20.12 3.389 6.553 21.007 20.296 35.058 27.347C75.312 210.167 96.291 216 107.407 216H112v16H90.901c-24.28 0-26.357.51-30.435 7.468-1.899 3.241-2.466 5.624-2.466 10.37V256h10.654l-.439-2.987c-.557-3.798.351-7.436 2.358-9.443 1.389-1.389 7.993-1.57 57.307-1.57 46.555 0 56.058.234 57.679 1.419 1.52 1.111 1.941 2.63 1.941 6.997v5.578l5.25.003L198 256v-6.04c0-7.03-2.424-12.664-6.692-15.557-2.485-1.684-5.339-1.961-24.808-2.403l-22-.5v-17.783l7.5-2.185c31.826-9.271 59.593-32.059 75.381-61.865l3.619-6.833-.097-20.667-.097-20.667-1.357 8.715c-11.651 74.827-93.489 117.41-161.949 84.268-9.896-4.791-18.939-10.969-26.392-18.03-5.68-5.381-6.34-6.394-5.736-8.801.376-1.496 1.78-3.22 3.121-3.831 2.783-1.268 2.028-1.705 14.612 8.46 10.614 8.573 25.293 15.934 38.395 19.254 55.368 14.029 110.555-18.623 125.128-74.035 2.25-8.556 2.634-12.094 2.655-24.5.046-27.165-7.542-47.804-25.297-68.805-6.605-7.814-7.289-10.892-2.936-13.222 3.045-1.629 5.325-.437 10.963 5.732 13.955 15.268 24.086 36.776 27.46 58.295l1.333 8.5.083-21 .083-21-4.083-7.5c-7.935-14.577-20.624-30.156-26.595-32.65-7.057-2.949-16.435-.306-19.935 5.619-1.732 2.933-1.819 2.959-4.313 1.306-1.4-.927-4.995-3.169-7.987-4.981L162.618 0l-18.559.09L125.5.179l7.591 1.375C157.882 6.043 179.512 20.126 193.677 41 197.131 46.089 202 55.419 202 56.946c0 .558-1.865 1.965-4.145 3.128-5.325 2.717-5.859 2.46-18.922-9.087-11.377-10.058-13.011-10.99-19.248-10.98-4.575.007-8.356 2.034-11.684 6.265-2.585 3.285-4.679 3.379-28.425 1.272-12.431-1.103-16.472-1.822-18.423-3.279-5.508-4.112-5.364-4.561 4.497-14.011 8.821-8.453 9.22-9.029 11.609-16.754 1.36-4.4 2.767-9.238 3.126-10.75l.653-2.75-24.769.031C71.8.062 71.452.092 67.534 2.498M45 20c-1.1 1.1-2 2.675-2 3.5 0 1.847 3.526 5.5 5.309 5.5 2.538 0 4.941-2.674 4.941-5.5S50.847 18 48.309 18c-.72 0-2.209.9-3.309 2M27.595 42.428c-2.549 4.349-2.593 4.755-2.505 22.75.09 18.157.102 18.258 1.389 11.164 1.728-9.519 4.007-16.25 8.652-25.551 3.177-6.361 3.681-8.154 2.884-10.25C37.24 38.501 36.373 38 33.62 38c-2.999 0-3.756.556-6.025 4.428M123 223.5v7.5h10.708l.199-7.5.198-7.5H123v7.5" fill="#1976D2" fill-rule="evenodd"/></svg>